<svg xmlns="http://www.w3.org/2000/svg" viewBox="0 0 676.46618 256.4426271186441" style="max-height: 500px" width="676.46618" height="256.4426271186441"><path fill="#b4d241" d="m126.13 39.55-1.78 22.97-18.39-1.31c.13 3.96 3.16 6.58 4.2 10.48 5.26 19.69-3.25 34.08-20.23 43.9l-28.97 8.25c-.6 2.9 3.81 4.27 5.75 5.06 19.31 7.93 50.12 4.99 53.19 35.11 7.04 68.99-146.2 59.87-115.95-7.32 5.79-12.86 21.51-16.61 22.62-18.42 1.14-1.85-.42-7.67.57-11.05.64-2.23 8.31-7.97 7.44-8.8-35.48-8-36.73-56.91-6.25-73.5 22.19-12.08 37.43-5.39 59.73-3.76 12.79.94 25.3-2.53 38.07-1.61m-68.68 21.9c-15.21 2.69-14.57 41.76 8.6 36.53 14.62-3.3 10.87-39.98-8.6-36.53m17.07 121.51c3.6-3.78 2.51-13.27-2.11-16.44-3.18-2.18-24.04-8.58-26.94-7.22-13.29 13.01-2.34 29.32 14.66 28.76 2.69-.09 12.79-3.43 14.39-5.1"/><path fill="#b12c9e" d="m487.6 44.97c-.06.44-2.32 1.72-1.55 2.3 46.02-15.64 83.18 26.22 65.43 70.63-15.98 39.99-76.03 40.83-107.32 19.83v-136.05c5.81-3.42 18.08.77 24.34 3.57 3.47 1.55 19.09 12.45 19.09 14.99 0 7.45.95 17.81 0 24.74m.01 34.78v34.79c0 .38-1.62 1.24-1.57 2.3 37.23 12.75 38.45-47.03 1.57-37.09"/><path fill="#b4d241" d="m178.49 38.41c42.79-5.77 78.68 18.31 74.9 63.82-5.91 71.14-134.79 73.58-125.7-15.5 2.5-24.51 26.92-45.1 50.8-48.32m24.66 77.93c9.32-9.18 7.08-39.18-7.13-43.61-24.57-7.65-32.41 28.06-16.44 42.66 6.29 5.75 17.28 7.16 23.57.95"/><path fill="#b12c9e" d="m364.66 44.6c42.16-5.71 73.17 21.59 66.39 64.62-9.06 57.45-115.75 58.37-115.06-11.41.27-27.44 21.69-49.55 48.68-53.21m-2.25 35.64c-9.96 11.06-4.9 38.64 12.93 39.18 21.59.65 18.33-39.63 2.84-42.71-4.7-.93-12.43-.18-15.77 3.53"/><path fill="#b12c9e" d="m622.57 85.94c-3.01-22.41-37.15-10-51.19-4.64.02-25.53 8.53-34.4 33.53-36.91 28.35-2.85 55.06 3.94 57.97 36.17 1.24 13.78-7.03 45.34 12.43 44.06l-5.41 23.19c-14.49 5.46-35.4 6.22-43.45-9.26-17.92 19.49-60.14 17.72-62.89-13.1-1.25-14.07 1.76-24.59 14.48-32.08 3.34-1.97 18.85-7.41 22.04-7.41h22.49zm0 17.01c-28.39-2.09-29.51 32.75-.27 19.85z"/><path fill="#b12c9e" d="m304.53 147.79h-41.89v-129.1c9.14-10.63 24.38-18.85 38.73-18.69 1.79.02 2.01.08 3.16 1.68z"/><g fill="#3f3f40"><path d="m811.84 150.88-1.56-47.92 17.66-1.37 3.28 6c8.76-8.23 24.26-11.66 31.07.06 6.97-3.54 11.23-8.6 19.95-7.71 5.08.52 14.92 6.11 14.92 11.52v39.43h-20.17v-23.97c0-11.96-12.41-8.77-12.41-4.64v28.61h-20.17v-28.61c0-5.89-7.17-3.5-10.86-2.32v30.92h-21.72z"/><path d="m774.27 100.22c39.81-4.31 42.62 52.24 4.14 53.8-37.28 1.51-40.47-49.86-4.14-53.8m-.11 16.91c-8.5 2.49-4.78 23.82 7.22 19.67 6.3-2.18 5.43-23.38-7.22-19.67"/><path d="m748.1 104.66-4.63 15.26c-25.25-9.34-25.44 22.93-.04 14.04 3.23 9.9 9.89 12.82-3.02 17.64-21.67 8.1-41.82-8.66-36.12-31.36 4.84-19.27 27.65-24.93 43.79-15.58"/><path d="m684.2 132.63c19.24-4.23 19.26 23.71 0 19.49-9.91-2.17-9.81-17.34 0-19.49"/></g></svg>